<svg width="84" height="34" viewBox="0 0 84 34" fill="none" xmlns="http://www.w3.org/2000/svg">
<path d="M26.5274 15.0313L26.587 15.0321C26.8085 15.0504 26.9782 15.2343 26.99 15.4556L26.9843 15.579L26.7956 17.8898L26.5977 20.1448C26.5558 20.595 26.5183 20.9747 26.4859 21.2736C26.3735 22.3153 25.6973 22.9594 24.678 22.9785C23.0896 23.0078 21.5629 23.0075 20.0802 22.9754C19.0904 22.9547 18.4242 22.3036 18.3137 21.2778L18.2374 20.5221L18.104 19.0562L17.9673 17.4476L17.811 15.5167C17.7916 15.269 17.9717 15.052 18.2133 15.0321C18.4347 15.0138 18.631 15.1675 18.6771 15.3841L18.6951 15.561L18.8418 17.3712L19.002 19.2475C19.0739 20.0598 19.1362 20.7171 19.1861 21.1789C19.249 21.7634 19.5568 22.0642 20.0985 22.0756C21.5695 22.1074 23.0849 22.1077 24.6621 22.0786C25.2366 22.0678 25.5493 21.77 25.6136 21.1744L25.6896 20.4227C25.7119 20.1911 25.7357 19.9354 25.7608 19.6576L25.9212 17.8123L26.1144 15.4445C26.1322 15.2174 26.3115 15.0433 26.5274 15.0313ZM17.4388 13.9935C17.1965 13.9935 17 13.792 17 13.5435C17 13.3157 17.1651 13.1274 17.3793 13.0976L17.4388 13.0935H19.3506C19.5778 13.0935 19.7767 12.9436 19.8478 12.7276L19.8653 12.6609L20.0138 11.9032C20.1447 11.4014 20.5695 11.0441 21.0674 11.0038L21.1616 11H23.6383C24.1445 11 24.5914 11.3278 24.7635 11.8342L24.7924 11.9313L24.9346 12.6607C24.9792 12.8892 25.1615 13.0599 25.382 13.0891L25.4493 13.0935H27.3612C27.6035 13.0935 27.8 13.295 27.8 13.5435C27.8 13.7713 27.6349 13.9596 27.4207 13.9894L27.3612 13.9935H17.4388ZM23.6383 11.9H21.1616C21.0384 11.9 20.929 11.9739 20.8835 12.0668L20.8681 12.1076L20.7259 12.8374C20.7085 12.9265 20.6833 13.0123 20.6511 13.0941L24.1489 13.0942C24.1288 13.0432 24.1114 12.9906 24.0969 12.9366L24.074 12.8373L23.9382 12.1357C23.9064 12.0139 23.8084 11.9248 23.6901 11.9045L23.6383 11.9Z" fill="#041E2F"/>
<path d="M43.384 20.232C43.456 20.336 43.492 20.448 43.492 20.568C43.492 20.712 43.432 20.836 43.312 20.94C43.2 21.036 43.068 21.084 42.916 21.084C42.692 21.084 42.512 20.984 42.376 20.784L40.768 18.288C40.584 18 40.388 17.8 40.18 17.688C39.972 17.568 39.7 17.508 39.364 17.508H38.008V20.436C38.008 20.628 37.952 20.78 37.84 20.892C37.736 21.004 37.588 21.06 37.396 21.06C37.212 21.06 37.064 21.004 36.952 20.892C36.84 20.78 36.784 20.628 36.784 20.436V13.14C36.784 12.956 36.836 12.812 36.94 12.708C37.052 12.596 37.204 12.54 37.396 12.54H40.384C41.32 12.54 42.032 12.748 42.52 13.164C43.016 13.58 43.264 14.188 43.264 14.988C43.264 15.652 43.076 16.192 42.7 16.608C42.324 17.016 41.788 17.276 41.092 17.388C41.3 17.444 41.488 17.544 41.656 17.688C41.824 17.832 41.988 18.032 42.148 18.288L43.384 20.232ZM40.24 16.512C40.864 16.512 41.324 16.392 41.62 16.152C41.924 15.904 42.076 15.524 42.076 15.012C42.076 14.5 41.928 14.128 41.632 13.896C41.336 13.656 40.872 13.536 40.24 13.536H37.996V16.512H40.24ZM49.5091 19.524C49.6211 19.524 49.7131 19.568 49.7851 19.656C49.8571 19.744 49.8931 19.856 49.8931 19.992C49.8931 20.224 49.7491 20.42 49.4611 20.58C49.1811 20.74 48.8731 20.864 48.5371 20.952C48.2091 21.04 47.8931 21.084 47.5891 21.084C46.6611 21.084 45.9291 20.816 45.3931 20.28C44.8571 19.736 44.5891 18.996 44.5891 18.06C44.5891 17.46 44.7051 16.928 44.9371 16.464C45.1771 16 45.5091 15.64 45.9331 15.384C46.3651 15.128 46.8531 15 47.3971 15C48.1811 15 48.8011 15.252 49.2571 15.756C49.7131 16.26 49.9411 16.94 49.9411 17.796C49.9411 18.116 49.7971 18.276 49.5091 18.276H45.8011C45.8811 19.516 46.4771 20.136 47.5891 20.136C47.8851 20.136 48.1411 20.096 48.3571 20.016C48.5731 19.936 48.8011 19.832 49.0411 19.704C49.0651 19.688 49.1291 19.656 49.2331 19.608C49.3451 19.552 49.4371 19.524 49.5091 19.524ZM47.4211 15.888C46.9571 15.888 46.5851 16.036 46.3051 16.332C46.0251 16.628 45.8571 17.044 45.8011 17.58H48.8971C48.8731 17.036 48.7331 16.62 48.4771 16.332C48.2291 16.036 47.8771 15.888 47.4211 15.888ZM53.3167 21.084C52.5007 21.084 51.8327 20.916 51.3127 20.58C51.1687 20.492 51.0647 20.4 51.0007 20.304C50.9447 20.208 50.9167 20.1 50.9167 19.98C50.9167 19.852 50.9527 19.744 51.0247 19.656C51.0967 19.568 51.1887 19.524 51.3007 19.524C51.4047 19.524 51.5687 19.588 51.7927 19.716C52.0327 19.844 52.2647 19.948 52.4887 20.028C52.7207 20.108 53.0087 20.148 53.3527 20.148C53.7367 20.148 54.0367 20.08 54.2527 19.944C54.4687 19.808 54.5767 19.616 54.5767 19.368C54.5767 19.208 54.5327 19.08 54.4447 18.984C54.3647 18.888 54.2207 18.804 54.0127 18.732C53.8047 18.652 53.4967 18.568 53.0887 18.48C52.3847 18.328 51.8767 18.124 51.5647 17.868C51.2607 17.604 51.1087 17.248 51.1087 16.8C51.1087 16.456 51.2087 16.148 51.4087 15.876C51.6087 15.596 51.8847 15.38 52.2367 15.228C52.5887 15.076 52.9887 15 53.4367 15C53.7567 15 54.0687 15.044 54.3727 15.132C54.6767 15.212 54.9447 15.332 55.1767 15.492C55.4407 15.668 55.5727 15.872 55.5727 16.104C55.5727 16.232 55.5327 16.34 55.4527 16.428C55.3807 16.516 55.2927 16.56 55.1887 16.56C55.1167 16.56 55.0447 16.544 54.9727 16.512C54.9007 16.48 54.8047 16.428 54.6847 16.356C54.4687 16.228 54.2647 16.128 54.0727 16.056C53.8887 15.984 53.6567 15.948 53.3767 15.948C53.0407 15.948 52.7687 16.02 52.5607 16.164C52.3607 16.308 52.2607 16.504 52.2607 16.752C52.2607 16.976 52.3527 17.152 52.5367 17.28C52.7287 17.4 53.0847 17.516 53.6047 17.628C54.1407 17.74 54.5607 17.868 54.8647 18.012C55.1687 18.156 55.3847 18.336 55.5127 18.552C55.6487 18.76 55.7167 19.028 55.7167 19.356C55.7167 19.876 55.4967 20.296 55.0567 20.616C54.6247 20.928 54.0447 21.084 53.3167 21.084ZM61.6498 19.524C61.7618 19.524 61.8538 19.568 61.9258 19.656C61.9978 19.744 62.0338 19.856 62.0338 19.992C62.0338 20.224 61.8898 20.42 61.6018 20.58C61.3218 20.74 61.0138 20.864 60.6778 20.952C60.3498 21.04 60.0338 21.084 59.7298 21.084C58.8018 21.084 58.0698 20.816 57.5338 20.28C56.9978 19.736 56.7298 18.996 56.7298 18.06C56.7298 17.46 56.8458 16.928 57.0778 16.464C57.3178 16 57.6498 15.64 58.0738 15.384C58.5058 15.128 58.9938 15 59.5378 15C60.3218 15 60.9418 15.252 61.3978 15.756C61.8538 16.26 62.0818 16.94 62.0818 17.796C62.0818 18.116 61.9378 18.276 61.6498 18.276H57.9418C58.0218 19.516 58.6178 20.136 59.7298 20.136C60.0258 20.136 60.2818 20.096 60.4978 20.016C60.7138 19.936 60.9418 19.832 61.1818 19.704C61.2058 19.688 61.2698 19.656 61.3738 19.608C61.4858 19.552 61.5778 19.524 61.6498 19.524ZM59.5618 15.888C59.0978 15.888 58.7258 16.036 58.4458 16.332C58.1658 16.628 57.9978 17.044 57.9418 17.58H61.0378C61.0138 17.036 60.8738 16.62 60.6178 16.332C60.3698 16.036 60.0178 15.888 59.5618 15.888ZM66.2267 20.136C66.4027 20.152 66.5267 20.2 66.5987 20.28C66.6787 20.352 66.7187 20.456 66.7187 20.592C66.7187 20.752 66.6547 20.876 66.5267 20.964C66.4067 21.044 66.2267 21.076 65.9867 21.06L65.6627 21.036C65.0147 20.988 64.5307 20.792 64.2107 20.448C63.8907 20.096 63.7307 19.58 63.7307 18.9V16.08H63.0107C62.6587 16.08 62.4827 15.924 62.4827 15.612C62.4827 15.468 62.5267 15.356 62.6147 15.276C62.7107 15.188 62.8427 15.144 63.0107 15.144H63.7307V13.908C63.7307 13.724 63.7827 13.58 63.8867 13.476C63.9987 13.372 64.1467 13.32 64.3307 13.32C64.5147 13.32 64.6627 13.372 64.7747 13.476C64.8867 13.58 64.9427 13.724 64.9427 13.908V15.144H66.1307C66.2987 15.144 66.4267 15.188 66.5147 15.276C66.6107 15.356 66.6587 15.468 66.6587 15.612C66.6587 15.764 66.6107 15.88 66.5147 15.96C66.4267 16.04 66.2987 16.08 66.1307 16.08H64.9427V18.984C64.9427 19.36 65.0187 19.636 65.1707 19.812C65.3307 19.988 65.5707 20.088 65.8907 20.112L66.2267 20.136Z" fill="#041E2F"/>
<rect x="1" y="1" width="81.8" height="32" rx="16" stroke="#041E2F"/>
</svg>
